{
  "accessors": [
    {
      "bufferView": 2,
      "componentType": 5126,
      "count": 65532,
      "max": [
        119.8280029296875,
        76.98719787597656,
        12.224200248718262
      ],
      "min": [
        -99.19960021972656,
        -18.661699295043945,
        -73.53379821777344
      ],
      "type": "VEC3"
    },
    {
      "bufferView": 2,
      "byteOffset": 786384,
      "componentType": 5126,
      "count": 65532,
      "max": [
        0.9997022747993469,
        0.9999863505363464,
        0.9986051917076111
      ],
      "min": [
        -0.9996927380561829,
        -0.9996939897537231,
        -0.9999977350234985
      ],
      "type": "VEC3"
    },
    {
      "bufferView": 1,
      "componentType": 5126,
      "count": 65532,
      "max": [
        0.993116021156311,
        0.9992560148239136
      ],
      "min": [
        0.0007440000190399587,
        0.0007880000048317015
      ],
      "type": "VEC2"
    },
    {
      "bufferView": 0,
      "componentType": 5125,
      "count": 324996,
      "type": "SCALAR"
    },
    {
      "bufferView": 2,
      "byteOffset": 1572768,
      "componentType": 5126,
      "count": 65533,
      "max": [
        125.02200317382813,
        77.24459838867188,
        63.10409927368164
      ],
      "min": [
        -160.15199279785156,
        -27.109600067138672,
        -73.5697021484375
      ],
      "type": "VEC3"
    },
    {
      "bufferView": 2,
      "byteOffset": 2359164,
      "componentType": 5126,
      "count": 65533,
      "max": [
        0.9999709129333496,
        0.9999899864196777,
        0.9999040365219116
      ],
      "min": [
        -0.9999259114265442,
        -0.9999831318855286,
        -0.9999582767486572
      ],
      "type": "VEC3"
    },
    {
      "bufferView": 1,
      "byteOffset": 524256,
      "componentType": 5126,
      "count": 65533,
      "max": [
        0.9804419875144958,
        0.7430649995803833
      ],
      "min": [
        0.0014880000380799174,
        0.06057199835777283
      ],
      "type": "VEC2"
    },
    {
      "bufferView": 0,
      "byteOffset": 1299984,
      "componentType": 5125,
      "count": 353724,
      "type": "SCALAR"
    },
    {
      "bufferView": 2,
      "byteOffset": 3145560,
      "componentType": 5126,
      "count": 65532,
      "max": [
        125.072998046875,
        49.591800689697266,
        65.40609741210938
      ],
      "min": [
        -164.78599548339844,
        -51.707401275634766,
        -72.76809692382813
      ],
      "type": "VEC3"
    },
    {
      "bufferView": 2,
      "byteOffset": 3931944,
      "componentType": 5126,
      "count": 65532,
      "max": [
        0.9998385310173035,
        0.9998456835746765,
        0.9999797940254211
      ],
      "min": [
        -0.9999816417694092,
        -0.9999764561653137,
        -0.999986469745636
      ],
      "type": "VEC3"
    },
    {
      "bufferView": 1,
      "byteOffset": 1048520,
      "componentType": 5126,
      "count": 65532,
      "max": [
        0.8464810252189636,
        0.999243974685669
      ],
      "min": [
        0.0007440000190399587,
        0.11663900315761566
      ],
      "type": "VEC2"
    },
    {
      "bufferView": 0,
      "byteOffset": 2714880,
      "componentType": 5125,
      "count": 320634,
      "type": "SCALAR"
    },
    {
      "bufferView": 2,
      "byteOffset": 4718328,
      "componentType": 5126,
      "count": 65532,
      "max": [
        125.01000213623047,
        38.38249969482422,
        37.41130065917969
      ],
      "min": [
        -163.39599609375,
        -51.13740158081055,
        -73.41280364990234
      ],
      "type": "VEC3"
    },
    {
      "bufferView": 2,
      "byteOffset": 5504712,
      "componentType": 5126,
      "count": 65532,
      "max": [
        0.9998862743377686,
        0.9933426380157471,
        0.9999788403511047
      ],
      "min": [
        -0.9996455311775208,
        -0.999995231628418,
        -0.999986469745636
      ],
      "type": "VEC3"
    },
    {
      "bufferView": 1,
      "byteOffset": 1572776,
      "componentType": 5126,
      "count": 65532,
      "max": [
        0.7993119955062866,
        0.9992560148239136
      ],
      "min": [
        0.0050570000894367695,
        0.6698279976844788
      ],
      "type": "VEC2"
    },
    {
      "bufferView": 0,
      "byteOffset": 3997416,
      "componentType": 5125,
      "count": 333162,
      "type": "SCALAR"
    },
    {
      "bufferView": 2,
      "byteOffset": 6291096,
      "componentType": 5126,
      "count": 65532,
      "max": [
        124.84200286865234,
        67.98709869384766,
        65.4269027709961
      ],
      "min": [
        -164.3179931640625,
        -51.699100494384766,
        -72.53469848632813
      ],
      "type": "VEC3"
    },
    {
      "bufferView": 2,
      "byteOffset": 7077480,
      "componentType": 5126,
      "count": 65532,
      "max": [
        0.9999899864196777,
        0.9997689723968506,
        0.999994695186615
      ],
      "min": [
        -0.9999220371246338,
        -0.9999522566795349,
        -0.9997730255126953
      ],
      "type": "VEC3"
    },
    {
      "bufferView": 1,
      "byteOffset": 2097032,
      "componentType": 5126,
      "count": 65532,
      "max": [
        0.874110996723175,
        0.979436993598938
      ],
      "min": [
        0.022690000012516975,
        0.015703000128269196
      ],
      "type": "VEC2"
    },
    {
      "bufferView": 0,
      "byteOffset": 5330064,
      "componentType": 5125,
      "count": 314358,
      "type": "SCALAR"
    },
    {
      "bufferView": 2,
      "byteOffset": 7863864,
      "componentType": 5126,
      "count": 65532,
      "max": [
        125.02200317382813,
        76.42569732666016,
        69.12950134277344
      ],
      "min": [
        -167.17799377441406,
        -51.358699798583984,
        -57.884700775146484
      ],
      "type": "VEC3"
    },
    {
      "bufferView": 2,
      "byteOffset": 8650248,
      "componentType": 5126,
      "count": 65532,
      "max": [
        0.999901533126831,
        0.9999997019767761,
        0.9999960064888
      ],
      "min": [
        -0.998336672782898,
        -0.9999927878379822,
        -0.9997729063034058
      ],
      "type": "VEC3"
    },
    {
      "bufferView": 1,
      "byteOffset": 2621288,
      "componentType": 5126,
      "count": 65532,
      "max": [
        0.8762230277061462,
        0.7335879802703857
      ],
      "min": [
        0.13988099992275238,
        0.06927499920129776
      ],
      "type": "VEC2"
    },
    {
      "bufferView": 0,
      "byteOffset": 6587496,
      "componentType": 5125,
      "count": 345324,
      "type": "SCALAR"
    },
    {
      "bufferView": 2,
      "byteOffset": 9436632,
      "componentType": 5126,
      "count": 21787,
      "max": [
        75.51599884033203,
        77.19270324707031,
        8.407790184020996
      ],
      "min": [
        -167.41799926757813,
        -18.213300704956055,
        -65.57520294189453
      ],
      "type": "VEC3"
    },
    {
      "bufferView": 2,
      "byteOffset": 9698076,
      "componentType": 5126,
      "count": 21787,
      "max": [
        0.9837955832481384,
        0.9999898076057434,
        0.9995689392089844
      ],
      "min": [
        -0.9999935030937195,
        -0.9970819354057312,
        -0.9997729063034058
      ],
      "type": "VEC3"
    },
    {
      "bufferView": 1,
      "byteOffset": 3145544,
      "componentType": 5126,
      "count": 21787,
      "max": [
        0.9795629978179932,
        0.9992560148239136
      ],
      "min": [
        0.21428599953651428,
        0.08660999685525894
      ],
      "type": "VEC2"
    },
    {
      "bufferView": 0,
      "byteOffset": 7968792,
      "componentType": 5125,
      "count": 106035,
      "type": "SCALAR"
    }
  ],
  "asset": {
    "extras": {
      "author": "Arkify 3D (https://sketchfab.com/arkify)",
      "license": "CC-BY-NC-4.0 (http://creativecommons.org/licenses/by-nc/4.0/)",
      "source": "https://sketchfab.com/3d-models/adidas-grand-court-shoe-3d-scan-afb22fa96e9e4765b6ae8187608a42e2",
      "title": "Adidas Grand Court Shoe 3D Scan"
    },
    "generator": "Sketchfab-14.36.1",
    "version": "2.0"
  },
  "bufferViews": [
    {
      "buffer": 0,
      "byteLength": 8392932,
      "name": "floatBufferViews",
      "target": 34963
    },
    {
      "buffer": 0,
      "byteLength": 3319840,
      "byteOffset": 8392932,
      "byteStride": 8,
      "name": "floatBufferViews",
      "target": 34962
    },
    {
      "buffer": 0,
      "byteLength": 9959520,
      "byteOffset": 11712772,
      "byteStride": 12,
      "name": "floatBufferViews",
      "target": 34962
    }
  ],
  "buffers": [
    {
      "byteLength": 21672292,
      "uri": "scene.bin"
    }
  ],
  "images": [
    {
      "uri": "textures/material_0_baseColor.png"
    }
  ],
  "materials": [
    {
      "doubleSided": true,
      "name": "material_0",
      "pbrMetallicRoughness": {
        "baseColorTexture": {
          "index": 0
        },
        "metallicFactor": 0.0,
        "roughnessFactor": 0.6
      }
    }
  ],
  "meshes": [
    {
      "name": "Object_0",
      "primitives": [
        {
          "attributes": {
            "NORMAL": 1,
            "POSITION": 0,
            "TEXCOORD_0": 2
          },
          "indices": 3,
          "material": 0,
          "mode": 4
        }
      ]
    },
    {
      "name": "Object_1",
      "primitives": [
        {
          "attributes": {
            "NORMAL": 5,
            "POSITION": 4,
            "TEXCOORD_0": 6
          },
          "indices": 7,
          "material": 0,
          "mode": 4
        }
      ]
    },
    {
      "name": "Object_2",
      "primitives": [
        {
          "attributes": {
            "NORMAL": 9,
            "POSITION": 8,
            "TEXCOORD_0": 10
          },
          "indices": 11,
          "material": 0,
          "mode": 4
        }
      ]
    },
    {
      "name": "Object_3",
      "primitives": [
        {
          "attributes": {
            "NORMAL": 13,
            "POSITION": 12,
            "TEXCOORD_0": 14
          },
          "indices": 15,
          "material": 0,
          "mode": 4
        }
      ]
    },
    {
      "name": "Object_4",
      "primitives": [
        {
          "attributes": {
            "NORMAL": 17,
            "POSITION": 16,
            "TEXCOORD_0": 18
          },
          "indices": 19,
          "material": 0,
          "mode": 4
        }
      ]
    },
    {
      "name": "Object_5",
      "primitives": [
        {
          "attributes": {
            "NORMAL": 21,
            "POSITION": 20,
            "TEXCOORD_0": 22
          },
          "indices": 23,
          "material": 0,
          "mode": 4
        }
      ]
    },
    {
      "name": "Object_6",
      "primitives": [
        {
          "attributes": {
            "NORMAL": 25,
            "POSITION": 24,
            "TEXCOORD_0": 26
          },
          "indices": 27,
          "material": 0,
          "mode": 4
        }
      ]
    }
  ],
  "nodes": [
    {
      "children": [
        1
      ],
      "matrix": [
        0.0008770393402136034,
        4.676537271010219e-05,
        1.0383998707586482e-20,
        0.0,
        2.3332482818813182e-05,
        -0.0004375781574902855,
        -0.0007611609408460716,
        0.0,
        -4.052894442945713e-05,
        0.0007600811721928462,
        -0.00043819978615666414,
        0.0,
        0.0,
        0.0,
        0.0,
        1.0
      ],
      "name": "Sketchfab_model"
    },
    {
      "children": [
        2,
        3,
        4,
        5,
        6,
        7,
        8
      ],
      "name": "AdidasWtex.obj.cleaner.materialmerger.gles"
    },
    {
      "mesh": 0,
      "name": "Object_2"
    },
    {
      "mesh": 1,
      "name": "Object_3"
    },
    {
      "mesh": 2,
      "name": "Object_4"
    },
    {
      "mesh": 3,
      "name": "Object_5"
    },
    {
      "mesh": 4,
      "name": "Object_6"
    },
    {
      "mesh": 5,
      "name": "Object_7"
    },
    {
      "mesh": 6,
      "name": "Object_8"
    }
  ],
  "samplers": [
    {
      "magFilter": 9729,
      "minFilter": 9987,
      "wrapS": 10497,
      "wrapT": 10497
    }
  ],
  "scene": 0,
  "scenes": [
    {
      "name": "Sketchfab_Scene",
      "nodes": [
        0
      ]
    }
  ],
  "textures": [
    {
      "sampler": 0,
      "source": 0
    }
  ]
}
